<!DOCTYPE svg PUBLIC "-//W3C//DTD SVG 1.1//EN" "http://www.w3.org/Graphics/SVG/1.1/DTD/svg11.dtd">
<!-- Uploaded to: SVG Repo, www.svgrepo.com, Transformed by: SVG Repo Mixer Tools -->
<svg version="1.1" id="_x32_" xmlns="http://www.w3.org/2000/svg" xmlns:xlink="http://www.w3.org/1999/xlink" width="800px" height="800px" viewBox="0 0 512 512" xml:space="preserve" fill="#000000">
<g id="SVGRepo_bgCarrier" stroke-width="0"/>
<g id="SVGRepo_tracerCarrier" stroke-linecap="round" stroke-linejoin="round"/>
<g id="SVGRepo_iconCarrier"> <style type="text/css">  .st0{fill:#ffffff;}  </style> <g> <path class="st0" d="M213.094,312.891c0.672,0.391,1.5,0.375,2.172-0.016l92.156-55.016c0.656-0.391,1.047-1.094,1.047-1.859 c0-0.75-0.391-1.469-1.047-1.859l-92.156-55c-0.672-0.391-1.5-0.406-2.172-0.031C212.406,199.5,212,200.219,212,201v55v55.016 C212,311.797,212.406,312.516,213.094,312.891z"/> <path class="st0" d="M0,16v480h512V16H0z M420,56h56v32h-56V56z M324,56h56v32h-56V56z M228,56h56v32h-56V56z M132,56h56v32h-56V56 z M36,56h56v32H36V56z M92,456H36v-32h56V456z M188,456h-56v-32h56V456z M284,456h-56v-32h56V456z M380,456h-56v-32h56V456z M476,456h-56v-32h56V456z M476.688,392h-440V120h440V392z"/> </g> </g>
</svg>